<?xml version="1.0" encoding="UTF-8"?><!DOCTYPE svg PUBLIC "-//W3C//DTD SVG 1.1//EN" "http://www.w3.org/Graphics/SVG/1.1/DTD/svg11.dtd"><svg xmlns="http://www.w3.org/2000/svg" xmlns:xlink="http://www.w3.org/1999/xlink"><symbol id="burger-sprite">
<symbol id="menu" fill="#2d9bb8" width="20" height="14" viewBox="0 0 20 14">
  <path d="M20 0H0V2H20V0Z" fill="#231F20"/>
<path d="M20 6H0V8H20V6Z" fill="#231F20"/>
<path d="M20 12H0V14H20V12Z" fill="#231F20"/>
</symbol>
<symbol id="close" fill="#2d9bb8" width="21" height="21" viewBox="0 0 21 20">
  <path d="M21 1.36585L19.5659 0L10.5512 8.58537L1.43415 0L0 1.36585L9.01463 10.0488L0 18.6341L1.43415 20L10.5512 11.4146L19.5659 20L21 18.6341L11.9854 10.0488L21 1.36585Z" fill="black"/>
</symbol>
</symbol><symbol id="cart"><path d="M20.19 6.86h-3.55L13.19.38c-.2-.38-.61-.48-1.02-.28-.4.19-.5.57-.3.95l3.14 5.8H5.78l3.15-5.8c.2-.38 0-.76-.3-.95A.82.82 0 007.6.38L4.16 6.86H.8c-.4 0-.81.28-.81.76 0 .38.3.76.81.76h.2l.92 2.86c-.2.1-.3.28-.3.57 0 .38.3.67.7.67L4.06 18h12.88l1.73-5.52c.4 0 .7-.29.7-.67 0-.2-.1-.48-.3-.57L20 8.38h.2c.4 0 .81-.28.81-.76s-.4-.76-.81-.76zm-4.57 9.62H5.07l-1.21-4.1h13.08l-1.32 4.1zm1.63-5.53H3.35L2.54 8.3h15.52l-.81 2.66z" fill="currnetColor"/></symbol><symbol id="check-tablet" viewBox="0 0 33 22">
<path d="M32.3704 1.35683L31.0098 0L11.5739 19.2863L1.95311 9.69163L0.59259 11.0485L10.2134 20.6432L11.5739 22L13.0316 20.6432L32.3704 1.35683Z" fill="black"/>
</symbol><symbol id="check" viewBox="0 0 24 17">
<path d="M23.963 1.68385L22.9687 0.692322L8.76555 14.7862L1.73497 7.77467L0.740742 8.76619L7.77132 15.7777L8.76555 16.7692L9.83079 15.7777L23.963 1.68385Z" fill="black"/>
</symbol><symbol id="fb" viewBox="0 0 15 28">
<path d="M11.7035 5.25484C12.7024 5.25484 13.7014 5.25484 14.4006 4.95313C14.8002 4.14856 15 3.04228 15 1.936C14.8002 1.936 14.9001 1.63428 14.8002 1.53371C14.8002 1.33257 14.5005 1.33257 14.5005 1.13142C14.2009 0.930282 14.0011 0.729141 13.8013 0.527999C13.102 0.326857 12.4028 0.226286 11.6036 0.0251435C10.8045 0.0251435 9.70565 -0.0754291 9.00639 0.125713C6.40916 0.125713 5.01066 1.232 3.71204 2.53942C3.71204 2.63999 3.71204 2.74056 3.61215 2.74056C3.01278 4.3497 3.51225 6.36112 3.41236 8.37254C3.51225 8.77483 3.51225 9.37826 3.61215 9.78054C2.61321 10.0823 1.41449 10.1828 0.21577 10.2834C-0.08391 10.5851 0.0159827 11.3897 0.0159827 11.9931C0.115876 12.5965 0.315665 13.0994 0.415558 13.6022C0.615345 13.8034 1.01492 14.0045 1.2147 14.1051C1.3146 14.1051 1.3146 14.2057 1.3146 14.2057C1.81406 14.5074 2.813 14.2057 3.61215 14.3062C3.51225 16.3177 3.91183 18.2285 3.61215 20.0388C3.61215 20.3405 3.91183 20.4411 3.81193 20.8434C3.81193 21.8491 3.71204 22.8548 4.01172 23.5588C3.71204 24.0616 3.51225 24.5645 3.61215 25.3691C3.71204 25.3691 3.71204 25.5702 3.71204 25.6708C3.61215 26.1736 4.3114 25.8719 4.21151 26.3748C4.4113 26.8776 3.81193 26.5759 3.81193 26.8776V27.7828C4.3114 28.0845 5.31033 27.9839 6.10948 27.9839C7.00852 27.5816 8.30714 27.4811 8.9065 26.7771C9.40597 26.9782 9.80554 26.7771 10.1052 26.5759C10.1052 26.2742 10.4049 26.2742 10.305 25.8719C10.305 25.5702 10.1052 25.3691 10.2051 24.9668V22.0502C10.0053 19.7371 10.2051 17.1222 9.90544 14.8091C10.8045 14.7085 11.8034 14.7085 12.5027 14.4068C12.9022 13.904 12.9022 13.2 13.0021 12.496C13.2019 12.2948 13.2019 11.8925 13.2019 11.4902C13.4017 11.2891 13.3018 10.7863 13.3018 10.384C13.2019 9.78054 13.102 9.07654 12.5027 8.97597C11.6036 8.77483 10.5048 9.5794 9.50586 9.27769C9.50586 8.1714 9.20618 6.96455 9.50586 5.85827C10.305 5.65712 11.0043 5.45598 11.7035 5.25484ZM7.90757 10.0823C8.00746 10.384 8.20725 10.5851 8.30714 10.7863C8.40704 10.7863 8.50693 10.7863 8.50693 10.8868C9.70565 10.9874 10.7046 10.7863 11.6036 10.5851C11.6036 11.5908 11.3039 12.2948 11.1042 13.0994C10.4049 13.0994 9.60575 13.4011 9.10629 13.3005C8.80661 13.5017 8.70671 13.8034 8.50693 14.0045C8.50693 14.4068 8.60682 14.5074 8.50693 14.8091C8.30714 14.9097 8.40704 15.4125 8.30714 15.6137V17.1222C8.40704 17.4239 8.20724 17.4239 8.20724 17.6251V21.1451C8.10735 21.4468 8.30714 21.4468 8.30714 21.6479V24.6651C8.40704 24.9668 8.20725 25.4696 8.40703 25.5702C8.30714 25.9725 8.00746 25.5702 7.60788 25.6708C7.10842 25.7713 6.70884 26.0731 6.10948 26.0731C6.20938 25.6708 6.40916 25.4696 6.40916 24.9668C6.40916 24.5645 6.00959 24.6651 5.9097 24.4639C6.10948 23.8605 6.50906 23.3576 6.60895 22.6536C6.80874 22.1508 7.30821 21.3462 6.90863 20.8434C6.40916 20.7428 6.40916 21.1451 6.10948 21.2456C6.10948 21.3462 6.10948 21.4468 6.00959 21.4468C6.00959 21.5474 6.00959 21.6479 5.9097 21.6479C5.9097 21.7485 5.70991 21.7485 5.9097 21.6479C5.9097 21.5474 5.9097 21.4468 6.00959 21.4468C6.00959 21.3462 6.00959 21.2456 6.10948 21.2456V20.9439C6.50906 20.3405 6.80874 19.7371 6.90863 18.9325C7.10842 18.6308 7.20831 18.2285 7.3082 17.9268C7.50799 17.6251 7.60789 17.0217 7.4081 16.7199C6.90863 16.7199 6.60895 17.0217 6.50906 17.4239C6.20938 17.2228 6.70884 17.0217 6.60895 16.7199C6.70884 16.5188 6.80874 16.1165 6.90863 15.9154C7.10842 15.5131 7.50799 14.6079 6.90863 14.3062C6.50906 14.3062 6.30927 14.5074 6.20938 14.8091C6.00959 15.0102 5.8098 15.2114 5.70991 15.5131C5.31034 15.4125 5.61002 14.8091 5.51012 14.4068C5.41023 13.904 5.61002 13.5017 5.51012 13.2C4.91076 12.3954 3.51225 13.0994 2.31353 12.8982C2.21364 12.5965 2.11375 11.8925 2.21364 11.6914C3.21257 11.5908 4.71098 11.8925 5.41023 11.4902C5.41023 11.3897 5.41023 11.2891 5.51012 11.2891C5.61002 10.5851 5.21044 10.2834 5.01066 9.88111C5.21044 9.07654 5.01065 7.86969 5.11055 6.86398C5.31033 6.76341 5.41023 6.46169 5.61001 6.26055C5.70991 5.25484 6.30927 4.75199 6.30927 3.74627C6.00959 3.74627 5.70991 3.6457 5.70991 3.94742C5.41023 3.84685 5.31034 4.45027 5.21044 4.14856C5.11055 3.6457 5.41023 3.54513 5.51012 3.14285C6.10948 2.74056 6.70885 2.33828 7.4081 1.936C9.10629 1.73485 12.0032 1.53371 13.5016 2.13714C13.6015 2.74056 13.2019 3.04227 13.3018 3.6457H11.8034C10.7046 3.84684 9.80554 4.3497 8.80661 4.65141C8.60682 4.75198 8.50693 4.95313 8.30714 5.0537C8.30714 5.45598 8.10735 5.65712 8.00746 6.05941C7.70778 7.4674 7.90757 8.67426 7.90757 10.0823Z" fill="currentColor"/>
</symbol><symbol id="flag" viewBox="0 0 47 81">
<path d="M7.76611 3.86183V42.3812L47 23.072L7.76611 3.86183ZM0 80.9005V0H3.83261V80.9005H0Z" fill="#63D1BB"/>
<path d="M3.83262 0.0996094H0V81.0001H3.83262V0.0996094Z" fill="#231F20"/>
</symbol><symbol id="htmlacademy" viewBox="0 0 26.943 34.09">
<path fill="currentColor" d="M13.62.017L13.472 0 0 1.412v24.661l13.473 8.017 13.43-7.99.042-.025V1.412L13.62.017zm11.399 12.11L13.495 5.334l-.001-.104-.087.05-.088-.056v.109L1.925 12.118V3.147l11.548-1.212L25.02 3.147v8.98zm-11.614-5.34L24.923 13.5l-4.479 2.64-7.093-4.221-.014 1.415 5.904 3.513-.86.507-5.03-2.992-.014 1.415 3.827 2.275-.782.523-3.031-1.787-.014 1.413 1.853 1.091-1.8 1.081-11.356-6.751 11.371-6.835zm-11.48 8.34l11.411 6.791.016 1.044-7.942-4.728-.015 1.416 7.979 4.795.018 1.076-7.973-4.74-.013 1.414 8.021 4.822.046.025 8.143-4.872-.011-5.177 3.415-2.036v10.021L13.472 31.85 1.925 24.979v-9.852z"/>
</symbol><symbol id="insta" viewBox="0 0 22 22">
<path d="M22 12.5849C22 10.2076 21.698 7.83019 21.698 5.55189C21.698 4.75944 21.5974 4.06604 21.4967 3.27359C21.3961 2.97642 21.3961 2.58019 21.2954 2.18396C20.9935 1.98585 21.0941 1.58962 20.7922 1.39151C20.3896 1.1934 19.5844 1.29245 19.0811 1.1934C18.3766 1.1934 17.7727 1.09434 17.1688 0.995283C15.2564 0.896226 13.1427 0.896228 11.1297 0.896228C9.11669 0.896228 7.10367 0.79717 5.39261 0.5H3.17829C3.07764 0.5 3.07764 0.599059 2.97699 0.599059C2.37308 0.599059 1.86983 0.797171 1.36657 0.896228C1.16527 0.995284 0.963971 1.09434 0.662018 1.1934C0.561367 1.39151 0.158762 1.29245 0.0581108 1.58962C-0.143191 1.78774 0.259412 2.08491 0.0581108 2.18396V3.07547C0.259412 3.17453 0.0581131 3.66981 0.158764 3.86793V4.85849C0.158764 6.14623 0.259413 7.23585 0.259413 8.52359C0.762667 11.2972 0.662019 14.9623 0.360066 17.8349C0.561368 18.4292 0.76267 18.9245 0.863321 19.5189C1.16527 20.0142 1.16527 20.6085 1.56787 21.0047C2.07113 21.2028 2.77569 21.2028 3.48024 21.2028C3.88284 21.3019 4.1848 21.5 4.5874 21.5C7.40562 21.3019 10.1232 21.3019 13.0421 21.3019C15.7596 21.5 18.8798 21.5 21.3961 21.1038C21.5974 21.0047 21.4967 20.6085 21.5974 20.3113C21.4967 19.9151 21.7987 19.9151 21.7987 19.5189C22 17.4387 22 15.0613 22 12.5849ZM8.91539 6.4434C9.7206 6.24528 10.4252 6.14623 11.331 6.14623C12.0356 6.24528 12.6395 6.4434 13.2434 6.64151C13.344 6.83962 13.0421 7.13679 13.4447 7.33491C13.5453 7.33491 13.5453 7.3349 13.646 7.43396C14.0486 7.43396 14.4512 7.63208 14.7531 7.83019C15.2564 7.92925 15.2564 8.32547 15.8603 8.22642C15.7596 8.42453 15.7596 8.7217 15.7596 9.01887C16.0616 10.2075 16.2629 11.7925 16.0616 13.2783C15.8603 13.4764 15.8603 13.6745 15.7596 13.9717C15.4577 14.2689 15.2564 14.7642 14.9544 15.0613C14.8538 15.2594 14.6525 15.4575 14.4512 15.5566C14.3505 15.7547 14.2499 16.0519 13.9479 16.0519C13.646 16.25 13.344 16.0519 13.1427 15.9528C12.7401 16.1509 12.2369 16.25 11.9349 16.5472C11.1297 16.4481 10.3245 16.3491 9.51929 16.25C9.31799 16.1509 9.01604 15.9528 8.71409 15.9528C8.51278 15.7547 8.21083 15.5566 7.90888 15.4575C7.80823 15.3585 7.60693 15.3585 7.40563 15.2594C7.20432 15.2594 7.20432 15.0613 6.90237 15.0613C6.80172 14.6651 6.49977 14.467 6.39912 13.9717C6.19782 13.6745 6.09716 13.1792 5.89586 12.783C5.89586 11.3962 5.99651 10.1085 6.29846 9.01887C6.60042 8.42453 7.10367 7.92925 7.40563 7.33491C7.60693 7.33491 7.80823 7.23585 7.80823 7.03774C8.11018 7.13679 8.21083 6.93868 8.51278 6.93868C8.71409 6.93868 8.71409 6.64151 8.91539 6.4434ZM7.20432 3.76887C7.10367 3.4717 7.10367 3.07547 7.10367 2.67925C7.10367 2.38208 7.40563 2.38208 7.40563 2.18396C7.40563 2.08491 7.30497 2.08491 7.20432 2.08491C7.30497 1.98585 7.90888 1.98585 8.00953 2.08491C8.11018 2.58019 7.60693 2.58019 7.50628 2.7783C7.50628 2.97642 7.80823 2.7783 8.00953 2.87736C8.00953 3.76887 7.90888 4.36321 8.00953 5.05661H7.50628C7.50628 5.25472 7.70758 5.25472 8.00953 5.25472C7.90888 5.55189 8.11018 5.65094 8.11018 5.84906C7.90888 6.04717 7.40562 5.84906 7.00302 5.94811C7.00302 5.35377 7.30497 4.56132 7.20432 3.76887ZM6.49977 2.18396C6.60042 2.18396 6.60042 2.18396 6.70107 2.28302C6.90237 2.58019 6.70107 2.97642 6.60042 3.17453C6.39911 2.97642 6.60042 2.48113 6.49977 2.18396ZM6.70107 3.96698C6.60042 3.86792 6.49977 3.76887 6.49977 3.4717C6.70107 3.57075 6.70107 3.76887 6.70107 3.96698ZM6.70107 5.35377C6.60042 5.45283 6.60042 5.35377 6.60042 5.15566C6.70107 5.0566 6.70107 5.25472 6.70107 5.35377ZM6.49977 5.55189C6.70107 5.55189 6.60042 5.75 6.70107 5.75C6.70107 5.94812 6.39912 5.94811 6.29846 5.84906C6.39912 5.75 6.49977 5.65094 6.49977 5.55189ZM4.1848 4.36321C4.1848 4.26415 4.1848 4.16509 4.08414 4.16509C3.98349 3.4717 4.1848 2.7783 4.08414 2.18396C4.3861 1.98585 4.88935 2.18396 5.19131 2.08491V3.17453C5.09066 3.27359 4.99 3.27359 4.7887 3.27359C4.68805 3.57076 5.09066 3.37264 5.19131 3.57076C5.19131 4.46227 5.09066 5.35377 5.39261 5.94811C4.7887 5.84906 4.48675 6.04717 3.9835 6.04717C4.08415 5.45283 3.9835 4.66038 4.48675 4.46226C4.48675 4.36321 4.1848 4.46226 4.1848 4.36321ZM3.68154 4.36321C3.48024 4.36321 3.48024 3.86793 3.58089 3.76887C3.88284 3.76887 3.78219 4.26415 3.68154 4.36321ZM3.48024 5.35377C3.58089 5.0566 3.48024 5.0566 3.58089 4.66038C3.78219 4.66038 3.78219 5.45283 3.48024 5.35377ZM3.68154 3.27359C3.37959 3.37264 3.37959 2.97642 3.48024 2.87736C3.78219 2.87736 3.88285 3.17453 3.68154 3.27359ZM3.68154 2.18396C3.68154 2.38208 3.58089 2.38208 3.58089 2.48113C3.37959 2.48113 3.48024 2.28302 3.37959 2.28302C3.48024 2.18396 3.58089 2.18396 3.68154 2.18396ZM3.48024 5.84906C3.58089 5.84906 3.58089 6.14623 3.37959 6.04717C3.48024 6.04717 3.48024 5.94811 3.48024 5.84906ZM2.77568 2.18396C2.77568 2.48113 2.37308 2.48113 2.37308 2.18396H2.77568ZM1.76918 2.28302C1.76918 2.48113 1.46723 2.48113 1.36657 2.67925C1.16527 2.48113 1.46722 2.18396 1.76918 2.28302ZM1.36657 2.97641C1.56788 2.7783 1.86983 2.58019 2.07113 2.38208C2.07113 2.28302 2.17178 2.28302 2.17178 2.18396H2.37308C2.47373 2.58019 2.07113 2.48113 2.07113 2.67925C2.07113 2.7783 1.97048 2.7783 1.97048 2.87736C1.97048 3.17453 2.07113 3.4717 2.07113 3.86793C1.76918 3.86793 1.76918 4.1651 1.46722 4.06604C1.46722 3.66981 1.26592 3.4717 1.36657 2.97641ZM1.46722 6.24529V4.66038C1.66853 4.46226 1.86983 4.26415 2.07113 4.16509C2.37308 4.66038 2.27243 5.55189 2.57438 6.04717C2.17178 6.14623 1.76918 6.14623 1.46722 6.24529ZM19.7857 17.2406C19.685 18.2311 19.5844 19.2217 19.3831 20.0142C16.4642 20.1132 13.344 20.0141 10.4252 20.2123C10.2239 20.2123 10.1232 20.2123 10.2238 20.0142C9.9219 20.0142 9.9219 20.2123 9.72059 20.2123C9.9219 19.9151 10.1232 19.3207 9.9219 18.9245C9.11669 18.9245 9.11669 19.717 8.81474 20.2123C8.11018 20.1132 7.70758 20.3113 7.00302 20.3113C7.20432 19.6179 7.70758 19.3208 7.90888 18.6274C7.50628 18.1321 6.90237 18.7264 6.70107 19.1226C6.49977 19.6179 6.09716 19.9151 5.89586 20.4104H4.88935C5.09066 19.9151 5.39261 19.5189 5.69456 19.0236C5.89586 18.5283 6.29847 18.3302 6.39912 17.6368C6.19782 17.3396 5.99651 17.6368 5.69456 17.6368C5.59391 17.8349 5.39261 17.934 5.29196 18.1321C5.09065 18.5283 4.7887 18.8255 4.5874 19.2217C4.3861 19.4198 4.28545 19.2217 4.08414 19.4198C3.68154 19.717 3.48024 20.1132 3.07764 20.4104C2.87633 20.3113 3.07764 20.0142 3.27894 20.0142C3.27894 19.816 3.17829 19.5189 3.37959 19.4198C3.48024 19.0236 3.58089 18.8255 3.78219 18.5283C3.88284 17.8349 4.28545 17.3396 4.48675 16.6462C3.88284 16.7453 3.78219 17.2406 3.48024 17.6368C3.27894 18.033 2.97699 18.4292 2.77568 18.9245C2.57438 18.8255 2.77569 18.3302 2.67503 18.1321C2.77569 17.5377 2.97699 17.0424 3.07764 16.4481C3.17829 16.25 3.27894 15.9528 3.27894 15.6557C3.48024 15.4575 3.27894 15.0613 3.17829 14.8632C2.97699 14.8632 2.77569 14.9623 2.67503 15.1604C2.47373 15.1604 2.47373 15.6557 2.37308 15.4575C2.37308 12.8821 1.86983 10.7028 1.86983 8.12736C1.86983 7.83019 1.66853 7.73113 1.66853 7.43396C3.27894 7.43396 4.7887 7.53302 6.49977 7.63207C6.39912 7.73113 6.29847 7.92925 6.19781 8.0283C6.09716 8.12736 5.99651 8.22642 5.79521 8.32547C5.1913 10.0094 4.7887 12.2877 5.19131 14.467C5.39261 15.0613 5.79521 15.4575 6.19781 15.8538C7.10367 16.3491 7.80823 16.9434 8.71409 17.5377C10.4252 17.934 12.5388 17.934 14.2499 17.5377C14.4512 17.4387 14.7531 17.3396 14.9544 17.1415C16.3636 15.9528 17.7727 14.6651 17.974 12.2877V10.9009C17.7727 9.31604 17.2694 8.0283 16.2629 7.33491C16.5648 7.13679 17.3701 7.3349 17.974 7.43396C18.1753 7.43396 18.3766 7.43396 18.6785 7.43396C19.0811 7.43396 19.5844 7.3349 20.0876 7.43396C20.1883 7.63207 20.1883 7.92925 20.2889 8.22642C20.1883 9.91038 20.0876 11.4953 20.0876 13.2783C20.1883 13.7736 20.1883 14.2689 20.2889 14.6651C20.0876 15.4575 19.987 16.3491 19.7857 17.2406ZM20.1883 6.14623C19.5844 6.04717 18.9805 5.84906 18.2759 5.75C18.3766 5.45283 19.0811 5.75 19.2824 5.55189C19.685 5.35378 19.5844 4.66038 19.5844 4.06604C19.5844 3.76887 19.685 3.4717 19.685 2.97641C19.2824 1.98585 17.8733 2.58019 16.7661 2.48113C16.5648 3.17453 16.2629 4.26415 16.4642 5.15566C16.6655 5.65094 17.4707 5.45283 17.974 5.65094C17.8733 5.94811 17.2694 5.75 16.9675 5.75C16.6655 5.65095 16.2629 5.65094 15.9609 5.55189C13.646 5.65094 11.633 5.55189 9.41864 5.75C9.51929 4.56132 9.51929 3.27359 9.31799 2.18396H12.4382C12.1362 2.58019 11.5323 2.67924 11.1297 2.97641C10.7271 3.17453 10.2238 3.4717 10.0225 3.86793C10.2238 3.96698 10.5258 3.66981 10.8278 3.4717C11.2304 3.37264 11.331 3.07547 11.633 2.97641C12.0356 2.58019 12.7401 2.38208 13.344 2.08491C13.7466 2.08491 14.0486 2.08491 14.3505 2.18396C15.659 2.18396 16.8668 2.28302 18.1753 2.28302C18.7792 2.38208 19.685 2.38208 20.1883 2.58019C20.2889 2.87736 20.3896 3.17453 20.4902 3.4717C20.3896 4.46226 20.1883 5.25472 20.1883 6.14623ZM14.2499 2.48113C14.3505 2.38208 14.2499 2.38208 14.2499 2.48113V2.48113ZM14.2499 2.48113C13.7466 2.67924 13.2434 2.7783 12.8408 3.17453C13.344 2.97642 13.9479 2.87736 14.2499 2.48113ZM15.357 3.07547C15.4577 2.97642 15.357 2.97642 15.357 3.07547V3.07547ZM13.5453 3.96698C14.2499 3.76887 14.7531 3.37264 15.2564 3.07547C14.8538 3.07547 14.6525 3.37264 14.2499 3.4717C14.1492 3.66981 13.7466 3.66981 13.5453 3.96698ZM12.8408 3.17453C12.7401 3.17453 12.9414 3.27359 12.8408 3.17453V3.17453ZM12.2369 3.76887C12.3375 3.66981 12.2369 3.66981 12.2369 3.76887V3.76887ZM12.1362 3.86793C12.2369 3.86793 12.2369 3.76887 12.1362 3.86793C12.1362 3.76887 12.1362 3.76887 12.1362 3.86793ZM12.0356 3.86793C12.1362 3.86793 12.1362 3.86793 12.0356 3.86793C12.0356 3.76887 12.0356 3.86793 12.0356 3.86793ZM11.2304 4.46226C11.5323 4.36321 11.8343 4.1651 12.0356 3.86793C11.7336 4.06604 11.4317 4.26415 11.2304 4.46226ZM13.5453 5.45283C14.0486 5.45283 14.2499 5.0566 14.7531 4.95755C15.0551 4.66038 15.5583 4.56132 15.7596 4.16509C15.1557 4.16509 14.9544 4.56132 14.5518 4.66038C14.2499 5.0566 13.7466 5.15566 13.5453 5.45283ZM11.2304 4.46226C10.9284 4.46226 11.2304 4.75943 11.2304 4.46226V4.46226ZM10.6265 4.85849C10.7271 4.85849 10.8278 4.85849 10.6265 4.85849C10.7271 4.75943 10.6265 4.85849 10.6265 4.85849ZM13.5453 5.45283C13.344 5.55189 13.5453 5.55189 13.5453 5.45283V5.45283ZM12.3375 7.23585C12.1362 7.03774 11.633 7.03774 11.331 6.83962C10.6265 6.83962 10.1232 6.93868 9.61994 7.03774C9.31799 7.23585 9.01604 7.33491 8.71409 7.53302C8.41213 7.73113 8.31148 7.92925 7.90888 8.0283C7.70758 8.22642 7.50628 8.52358 7.20432 8.62264C7.20432 8.82075 7.00302 8.91981 6.90237 9.01887C6.80172 9.11792 6.80172 9.31604 6.70107 9.41509C6.70107 9.51415 6.70107 9.71227 6.60042 9.71227C6.70107 11.1981 6.90237 12.5849 7.30497 13.8726C7.60693 14.467 8.31148 14.6651 8.71409 15.1604C9.31799 15.4575 10.0225 15.5566 10.8278 15.6557C11.1297 15.5566 11.4317 15.5566 11.7336 15.5566C12.9414 15.3585 13.8473 14.8632 14.5518 14.1698C14.6525 13.8726 14.8538 13.6745 15.0551 13.4764C14.7531 12.783 15.357 12.3868 15.5583 11.8915C15.5583 10.6038 15.357 9.41509 14.9544 8.52359C14.6525 7.92925 14.0486 7.73113 13.5453 7.43396C13.4447 7.43396 13.344 7.43396 13.344 7.33491C13.1427 7.23585 12.6395 7.13679 12.3375 7.23585ZM8.91539 11.5943C8.81474 11.4953 8.81474 11.3962 8.71409 11.1981C9.01604 11.0991 8.91539 11.3962 8.91539 11.5943ZM9.01604 11.8915C9.01604 11.7925 9.11669 11.8915 9.01604 11.8915C9.01604 12.0896 9.01604 11.9906 9.01604 11.8915ZM9.41864 9.81132C9.41864 9.71226 9.51929 9.81132 9.41864 9.81132C9.51929 9.91038 9.41864 9.91038 9.41864 9.81132ZM11.1297 7.73113C10.9284 8.0283 11.1297 8.32547 11.2304 8.52359C10.9284 8.52359 10.6265 7.73113 11.1297 7.73113ZM11.5323 11.5943C11.4317 11.5943 11.5323 11.5943 11.5323 11.5943C11.633 11.5943 11.5323 11.6934 11.5323 11.5943ZM12.2369 14.467C12.2369 14.3679 12.3375 14.467 12.4382 14.467C12.4382 14.566 12.2369 14.566 12.2369 14.467ZM14.4512 11.9906C14.2499 11.8915 14.3505 12.1887 14.0486 12.1887C14.1492 11.9906 14.1492 11.8915 14.2499 11.6934C14.4512 11.6934 14.5518 11.7924 14.4512 11.9906ZM13.344 8.22642C13.5453 8.32547 13.7466 8.42453 13.9479 8.62264C14.0486 8.82075 14.1492 9.01887 14.3505 9.11792C14.4512 9.91038 14.5518 10.6038 14.5518 11.4953C14.2499 11.5943 14.1492 11.7925 13.8473 11.8915C13.0421 11.8915 12.4382 11.6934 11.9349 11.3962C11.7336 11.0991 11.5323 10.9009 11.4317 10.6038V9.51415C11.633 9.31604 11.7336 9.11792 11.9349 8.91981C12.1362 8.82075 12.4382 8.7217 12.4382 8.32547C12.4382 8.22642 12.3375 8.22641 12.3375 8.12736C12.5388 8.12736 12.5388 8.32547 12.7401 8.32547C12.9414 8.32547 13.0421 8.12736 13.344 8.22642Z" fill="currentColor"/>
</symbol><symbol id="mail"><path opacity=".2" d="M28 0H4C1.8 0 0 1.8 0 4v13c0 2.2 1.8 4 4 4h24c2.2 0 4-1.8 4-4V4c0-2.2-1.8-4-4-4zM2 5.3l7 5.3-7 5.3V5.3zM30 17c0 1.1-.9 2-2 2H4c-1.1 0-2-.9-2-2l7.8-5.9 4.4 3.3c.5.4 1.2.6 1.8.6.6 0 1.3-.2 1.8-.6l4.4-3.3L30 17zm0-1.2l-7-5.3 7-5.3v10.6zm-12.8-2.2c-.4.3-.8.4-1.2.4-.4 0-.9-.1-1.2-.4l-4.1-3.1-.8-.6L2 4c0-1.1.9-2 2-2h24c1.1 0 2 .9 2 2l-12.8 9.6z" fill="currentColor"/></symbol><symbol id="menu-close" viewBox="0 0 21 20">
<path d="M21 1.36585L19.5659 0L10.5512 8.58537L1.43415 0L0 1.36585L9.01463 10.0488L0 18.6341L1.43415 20L10.5512 11.4146L19.5659 20L21 18.6341L11.9854 10.0488L21 1.36585Z" fill="black"/>
</symbol><symbol id="menu" viewBox="0 0 20 14">
<path d="M20 0H0V2H20V0Z" fill="#231F20"/>
<path d="M20 6H0V8H20V6Z" fill="#231F20"/>
<path d="M20 12H0V14H20V12Z" fill="#231F20"/>
</symbol><symbol id="phone" viewBox="0 0 25 24">
<path d="M17.4395 24C17.0363 24 16.7339 24 16.3306 24C11.3911 23.4074 7.7621 21.1358 5.14113 18.2717C2.52016 15.4075 0.403226 11.7532 0 6.7162C0 6.22237 0 5.82731 0 5.33349C0.100806 4.44461 0.504032 3.85202 1.10887 3.25943C1.71371 2.56808 2.72177 1.77796 3.62903 1.6792C4.33468 1.6792 5.44355 2.17302 5.84677 2.76561C6.25 3.25943 6.45161 4.34584 6.65323 5.13596C6.85484 6.02484 7.25806 7.11125 7.15726 7.90137C6.95565 9.08655 5.34274 9.58037 4.93952 10.4693C6.55242 14.1235 9.07258 16.889 12.5 18.6667C13.3065 18.1729 14.1129 16.7902 15.3226 16.7902C15.7258 16.7902 16.3306 16.9877 16.7339 17.0865C17.2379 17.1852 17.6411 17.3828 18.0444 17.5803C18.75 17.8766 20.0605 18.1729 20.4637 18.7655C20.8669 19.3581 21.1694 20.3457 21.0685 20.9383C20.7661 22.2222 18.6492 23.6049 17.4395 24Z" fill="black"/>
<path d="M12.6008 1.48147C18.5484 1.48147 23.4879 6.22217 23.4879 12.1481H25C25 5.43205 19.4556 0 12.6008 0V1.48147Z" fill="currentColor"/>
<path d="M12.6008 9.18506V10.7653C13.4073 10.7653 14.0121 11.3579 14.0121 12.148H15.625C15.625 10.5678 14.3145 9.18506 12.6008 9.18506Z" fill="currentColor"/>
<path d="M12.6008 6.12356C15.9274 6.12356 18.75 8.79021 18.75 12.1482H20.3629C20.3629 8.00009 16.9355 4.64209 12.7016 4.64209V6.12356H12.6008Z" fill="currentColor"/>
</symbol><symbol id="play" viewBox="0 0 101 77">
<path d="M97.2706 18.1C97.2706 18.1 96.3698 11.1 93.467 7.99997C89.8636 3.99997 85.7597 3.89995 83.958 3.69995C70.6453 2.69995 50.6262 2.69995 50.6262 2.69995H50.5261C50.5261 2.69995 30.507 2.69995 17.1944 3.69995C15.2925 3.89995 11.2887 3.99997 7.68531 7.99997C4.88264 11.1 3.88169 18.1 3.88169 18.1C3.88169 18.1 2.98083 26.3 2.98083 34.5V42.2C2.98083 50.4 3.88169 58.6 3.88169 58.6C3.88169 58.6 4.78255 65.6 7.68531 68.7C11.2887 72.7 16.0933 72.6 18.1953 73C25.8026 73.8 50.6262 74 50.6262 74C50.6262 74 70.6453 74 83.958 73C85.8598 72.8 89.8636 72.7 93.467 68.7C96.2697 65.6 97.2706 58.6 97.2706 58.6C97.2706 58.6 98.1715 50.4 98.1715 42.2V34.5C98.1715 26.3 97.2706 18.1 97.2706 18.1Z" fill="#63D1BB"/>
<path d="M50.5262 76.8C49.5252 76.8 25.5023 76.5 17.8951 75.8H17.795H17.6949C17.3946 75.7 16.9943 75.7 16.5939 75.6C14.0915 75.3 9.387 74.7 5.78356 70.6C2.38032 67 1.37937 59.8 1.27927 59C1.27927 58.7 0.27832 50.5 0.27832 42.3V34.6C0.27832 26.3 1.17919 18.2 1.17919 17.9V17.8C1.27928 17 2.38033 9.89998 5.68348 6.19998C9.68729 1.79998 14.1916 1.30001 16.3937 1.10001C16.5939 1.10001 16.7941 1.1 16.8942 1H16.9943C30.3069 0 50.326 0 50.5262 0H50.6263C50.8265 0 70.8456 0 84.1582 1H84.2583C84.4585 1 84.5586 1.00001 84.7588 1.10001C86.9609 1.30001 91.4652 1.79998 95.469 6.19998C98.8722 9.79998 99.8732 17 99.9733 17.8C99.9733 18.1 100.974 26.3 100.974 34.6V42.3C100.974 50.6 100.073 58.7 99.9733 59V59.1C99.8732 59.9 98.7721 67.1 95.469 70.7C91.4652 75.1 86.9609 75.6 84.7588 75.8C84.5586 75.8 84.3584 75.8 84.2583 75.9H84.1582C70.8456 76.8 50.7264 76.8 50.5262 76.8ZM18.5958 70.4C26.1029 71.1 49.8255 71.4 50.6263 71.4C51.327 71.4 70.7455 71.4 83.6578 70.4C83.8579 70.4 84.0581 70.4 84.2583 70.3C86.06 70.1 88.8627 69.8 91.4652 67C93.2669 65 94.3679 60.1 94.5681 58.4C94.6682 57.9 95.469 50 95.469 42.3V34.6C95.469 26.8 94.5681 19 94.468 18.5C94.1677 16.1 93.0667 11.7 91.3651 10C88.7626 7.1 85.9599 6.89998 84.1582 6.69998C83.958 6.69998 83.7578 6.70001 83.5576 6.60001C70.4452 5.60001 50.7264 5.60001 50.5262 5.60001H50.4261C50.2259 5.60001 30.407 5.60001 17.3946 6.60001C17.1944 6.60001 16.9942 6.59998 16.7941 6.69998C14.9923 6.89998 12.1897 7.2 9.5872 10C7.78549 12 6.68443 16.9 6.48424 18.6C6.38415 19.2 5.58338 27 5.58338 34.7V42.4C5.58338 50.1 6.48424 58 6.48424 58.5C6.78453 60.9 7.88558 65.3 9.5872 67C11.8894 69.6 14.8923 70 17.0944 70.3C17.6949 70.2 18.0953 70.3 18.5958 70.4Z" fill="white"/>
<path d="M38.6146 20.5V56.2L68.443 38.4L38.6146 20.5Z" fill="white"/>
</symbol><symbol id="search"><path d="M17.7 16.06l-3.48-3.48a7.63 7.63 0 001.53-4.7c0-4.4-3.48-7.88-7.88-7.88A7.81 7.81 0 000 7.88c0 4.4 3.48 7.87 7.88 7.87 1.73 0 3.37-.61 4.7-1.53l3.48 3.47c.2.2.4.31.82.31.6 0 1.12-.51 1.12-1.13 0-.2-.1-.5-.3-.81zM2.24 7.88a5.67 5.67 0 015.63-5.63 5.67 5.67 0 015.62 5.63 5.67 5.67 0 01-5.63 5.62 5.67 5.67 0 01-5.62-5.63z" fill="currnetColor"/></symbol><symbol id="slider-next" viewBox="0 0 50 26">
<path d="M0 11H42.3L34.2 2.8L37 0L50 13L37 26L34.2 23.2L42.3 15H0V11Z" fill="black"/>
</symbol><symbol id="slider-prev" viewBox="0 0 50 26">
<path d="M50 11H7.7L15.8 2.8L13 0L0 13L13 26L15.8 23.2L7.7 15H50V11Z" fill="black"/>
</symbol><symbol id="twitter" viewBox="0 0 23 20">
<path d="M22.9571 4.24243C22.7628 3.83838 22.0826 3.93939 21.5968 3.83838H20.5279C20.6251 3.43434 20.8194 3.23232 21.0138 2.82828C21.1109 2.42424 21.3053 2.12121 21.2081 1.51515C21.3053 1.31313 21.4024 1.11111 21.4996 0.909089C21.5968 0.808079 21.694 0.404041 21.5968 0.202021C21.4996 7.67636e-07 21.3053 0 21.0138 0C20.9166 0 20.8194 0.101009 20.8194 0.101009C20.4308 0.505049 20.0421 1.11111 19.5562 1.51515H19.4591C19.3619 1.51515 19.4591 1.51515 19.3619 1.61616C19.2647 1.71717 19.0704 1.81818 18.9732 1.81818C18.6817 2.0202 18.4874 2.22222 18.0987 2.32323C17.6129 2.12121 16.9327 2.0202 16.2525 1.91919C15.0865 2.0202 14.0176 2.12121 13.3374 2.62626C12.4629 2.92929 11.8799 3.63636 11.2969 4.24243C11.2969 4.54546 11.0054 4.64646 10.9082 4.94949C10.9082 4.94949 10.9082 5.05051 10.811 5.05051C10.811 5.25253 10.7139 5.35354 10.7139 5.55556C10.7139 5.65657 10.9082 5.9596 10.7139 6.06061C9.93651 5.9596 9.25633 5.45455 8.67331 5.05051C7.99313 4.64646 7.21578 4.44444 6.63277 3.93939C5.95259 3.63636 5.36957 3.13131 4.88372 2.62626C4.68939 2.32323 4.39788 2.12121 4.20354 1.71717C3.81487 1.51515 4.00921 0.80808 3.52336 0.80808C3.23185 0.80808 3.23185 1.0101 3.13468 1.21212C3.03751 1.41414 2.74601 1.41414 2.74601 1.71717C2.74601 1.71717 2.74601 1.81818 2.64884 1.81818C2.4545 2.92929 2.16299 3.83838 2.16299 5.15151C2.26016 5.55555 2.4545 5.85858 2.74601 6.16161C2.35733 6.26263 2.06583 6.36364 1.87149 6.66667C1.77432 7.77778 2.26016 8.28283 2.55167 8.9899C2.64884 9.39394 2.94035 9.69697 3.13468 10C3.13468 10.202 3.32902 10.303 3.42619 10.404C3.42619 10.5051 3.52336 10.505 3.52336 10.6061C3.52336 10.7071 3.81487 10.8081 3.62053 10.8081C3.23185 10.9091 2.64884 10.9091 2.35733 11.2121C2.26016 11.5152 2.26016 12.0202 2.35733 12.3232C2.35733 12.5253 2.64884 12.6263 2.64884 12.8283C3.13468 13.2323 3.7177 13.5354 4.20354 13.9394C4.78656 14.1414 5.36957 14.2424 6.04975 14.3434C5.95258 14.6465 5.75825 14.9495 5.46674 15.0505C4.68939 15.4545 3.7177 15.5556 2.84318 15.7576C2.26016 15.7576 1.87149 15.9596 1.28848 15.9596C0.996969 16.0606 0.413953 16.0606 0.219615 16.1616C0.122446 16.2626 0.122445 16.2626 0.0252764 16.3636C-0.0718926 16.7677 0.122447 17.0707 0.413954 17.2727C0.413954 17.5758 0.608293 17.5758 0.802631 17.6768C0.8998 17.8788 1.09414 17.9798 1.1913 18.0808C1.67715 18.5859 2.4545 18.8889 3.03752 19.1919C3.81487 19.3939 4.59222 19.596 5.46674 19.697C6.34126 19.798 7.31295 19.798 8.18747 19.899H9.15916C9.645 20 10.3252 20 11.0054 20C11.1025 19.899 11.2969 19.899 11.4912 19.899C11.9771 19.596 12.6572 19.4949 13.0459 19.1919C13.6289 18.9899 14.0176 18.5859 14.6006 18.2828C15.4751 17.4748 16.4468 16.9697 17.0298 15.8586C17.2242 15.6566 17.4185 15.4545 17.4185 15.1515C17.71 14.9495 17.8072 14.6465 18.0015 14.4444C18.3902 14.0404 18.6817 13.5354 18.9732 13.0303C19.2647 12.5253 19.5562 11.9192 19.8477 11.4141C19.8477 11.0101 20.1393 10.9091 20.1393 10.505C20.3336 10.303 20.3336 9.79798 20.5279 9.59596C20.5279 9.29293 20.5279 9.19192 20.6251 8.9899C20.6251 7.67677 20.6251 6.56566 20.3336 5.55556C20.9166 5.35354 21.4996 5.25252 21.8883 4.94949C22.6656 5.25252 23.1515 4.84849 22.9571 4.24243ZM19.6534 8.28283C19.4591 9.19192 19.0704 9.69697 18.6817 10.303C18.7789 10.7071 18.5845 10.8081 18.5845 11.2121C18.3902 11.5152 18.293 11.9192 18.1959 12.2222C18.0015 12.5253 17.9044 12.8283 17.71 13.1313C17.3214 13.6364 16.9327 14.2424 16.544 14.7475C16.1553 15.3535 15.6695 15.7576 15.2808 16.2626C14.8921 16.7677 14.4063 17.1717 13.9204 17.5758C13.4346 17.7778 13.0459 17.9798 12.6572 18.2828C12.4629 18.3838 12.1714 18.4848 11.9771 18.5859C11.7827 18.6869 11.4912 18.6869 11.2969 18.8889C10.228 18.9899 9.06199 19.0909 7.79879 18.9899C6.8271 18.8889 5.75824 18.7879 4.88372 18.5859C4.0092 18.3838 3.42619 17.8788 2.64884 17.5758C2.84318 17.3737 3.23185 17.3737 3.62053 17.3737C3.62053 17.1717 4.00921 17.3737 4.00921 17.2727C4.30071 17.3737 4.30071 17.1717 4.49505 17.1717C5.07806 16.9697 5.66108 16.8687 6.14692 16.5657C6.43843 16.4646 6.5356 16.1616 6.8271 15.9596C6.8271 15.7576 6.92427 15.6566 7.02144 15.5556C7.02144 15.2525 7.21578 15.1515 7.11861 14.7475C7.21578 14.5455 7.41012 14.4444 7.41012 14.0404C7.31295 13.9394 7.31295 13.7374 7.11861 13.6364C7.11861 13.4343 6.72994 13.5354 6.72994 13.4343C6.43843 13.4343 6.34126 13.4343 6.14692 13.3333C5.95259 13.3333 5.66108 13.4343 5.66108 13.2323C4.88373 13.2323 4.39788 12.8283 3.81487 12.5253C4.20354 12.2222 4.78656 12.1212 5.07806 11.8182C5.56391 11.7172 6.14692 11.7172 6.14692 11.1111C6.14692 10.404 5.36957 10.404 4.88372 10.303C4.10637 9.59596 3.7177 8.58586 3.13468 7.77778C3.32902 7.57576 3.7177 7.57576 3.81487 7.37374C4.30071 7.47475 4.30071 7.07071 4.49505 6.86869C4.49505 6.36364 4.20354 6.26263 3.91203 6.06061C3.62053 5.85859 3.42619 5.55556 3.23185 5.35354C3.23185 4.54545 3.23185 3.63636 3.32902 2.92929C3.42619 2.92929 3.42619 2.92929 3.42619 3.0303C3.62053 3.43434 4.00921 3.83838 4.20354 4.24243C4.68939 4.64647 5.07806 5.15151 5.75825 5.35354C6.24409 5.75758 6.8271 5.9596 7.31295 6.36364C7.89596 6.66667 8.47898 6.9697 8.96482 7.27273C9.645 7.47475 10.0337 7.9798 10.9082 7.87879C11.1025 7.77778 11.2969 7.67677 11.4912 7.57576C11.7827 7.07071 11.394 6.46464 11.5884 5.95959C11.8799 5.25252 12.3657 4.94949 12.8516 4.44444C13.1431 4.24242 13.4346 4.14141 13.6289 3.93939C13.9204 3.83838 14.3091 3.73737 14.6006 3.53535C14.9893 3.53535 15.2808 3.43434 15.5723 3.43434H16.8355C17.0298 3.53535 17.3214 3.53535 17.5157 3.53535C17.71 3.63636 17.9044 3.83838 18.1959 3.93939C18.9732 4.64646 19.4591 5.65656 19.5562 6.9697C19.5562 7.27273 19.6534 7.67677 19.6534 8.28283ZM19.9449 2.62626C19.8477 2.92929 19.7506 3.33333 19.3619 3.43434C19.3619 3.33333 19.2647 3.33333 19.2647 3.23232C19.2647 3.0303 19.4591 3.0303 19.5562 2.92929C19.6534 2.82828 19.7506 2.62626 19.9449 2.62626C19.9449 2.52525 20.0421 2.62626 19.9449 2.62626ZM14.6006 5.65656C14.795 5.75757 14.8921 5.9596 15.0865 6.06061C15.1836 6.26263 15.378 6.36363 15.6695 6.46464C15.6695 6.26262 15.961 6.46465 16.0582 6.26263C16.2525 6.26263 16.2525 6.0606 16.3497 5.95959C16.3497 5.45454 16.2525 4.94949 15.961 4.64646C15.2808 4.14141 14.3091 4.64646 14.6006 5.65656Z" fill="currentColor"/>
</symbol><symbol id="video" viewBox="0 0 32 22">
<path d="M26 10L32 6V22L26 18V10ZM24 10V18C24 20.2 22.2 22 20 22H4C1.8 22 0 20.2 0 18V10C0 7.8 1.8 6 4 6H14C14 4.9 14.9 4 16 4V2H5C4.4 2 4 1.6 4 1C4 0.4 4.4 0 5 0H17C17.6 0 18 0.4 18 1V4C19.1 4 20 4.9 20 6C22.2 6 24 7.8 24 10ZM12 10H4V18H12V10ZM20 11C20 10.4 19.6 10 19 10H15C14.4 10 14 10.4 14 11C14 11.6 14.4 12 15 12H19C19.6 12 20 11.6 20 11Z" fill="#63D1BB"/>
</symbol><symbol id="zigzag-fill-desktop" viewBox="0 0 768 24">
<path d="M750.784 0C741.142 0 741.142 9.88235 731.567 9.88235C721.992 9.88235 721.925 0 712.35 0C702.776 0 702.709 9.88235 693.134 9.88235C683.492 9.88235 683.492 0 673.85 0C664.209 0 664.209 9.88235 654.634 9.88235C644.992 9.88235 644.992 0 635.417 0C625.776 0 625.776 9.88235 616.201 9.88235C606.626 9.88235 606.358 0 596.783 0C587.142 0 587.142 9.88235 577.567 9.88235C567.992 9.88235 567.858 0 558.283 0C548.642 0 548.642 9.88235 539.067 9.88235C529.425 9.88235 529.425 0 519.783 0C510.142 0 510.142 9.88235 500.567 9.88235C490.925 9.88235 490.925 0 481.35 0C471.776 0 471.642 9.88235 462 9.88235C452.358 9.88235 452.358 0 442.783 0C433.142 0 433.142 9.88235 423.567 9.88235C413.925 9.88235 413.925 0 404.283 0C394.642 0 394.642 9.88235 385.067 9.88235C375.425 9.88235 375.425 0 365.85 0C356.209 0 356.209 9.88235 346.634 9.88235C336.992 9.88235 336.992 0 327.417 0C317.776 0 317.776 9.88235 308.134 9.88235C298.492 9.88235 298.492 0 288.85 0C279.209 0 279.209 9.88235 269.567 9.88235C259.925 9.88235 259.925 0 250.283 0C240.642 0 240.642 9.88235 231 9.88235C221.358 9.88235 221.358 0 211.717 0C202.075 0 202.075 9.88235 192.433 9.88235C182.791 9.88235 182.791 0 173.15 0C163.508 0 163.508 9.88235 153.933 9.88235C144.291 9.88235 144.291 0 134.65 0C125.008 0 125.008 9.88235 115.366 9.88235C105.724 9.88235 105.724 0 96.0826 0C86.4409 0 86.4409 9.88235 76.7991 9.88235C67.1574 9.88235 67.1574 0 57.5157 0C48.1417 0 48.1417 9.88235 38.5 9.88235C28.8583 9.88235 28.8583 0 19.2835 0C9.70869 0 9.64174 9.88235 0 9.88235V24H770V9.88235C760.358 9.88235 760.358 0 750.784 0Z" fill="white"/>
</symbol><symbol id="zigzag-line-desktop" viewBox="0 0 320 6">
<path d="M320 6C317.496 6 316.188 4.8 315.13 3.83478C314.184 2.97391 313.489 2.34783 312.014 2.34783C310.511 2.34783 309.843 2.97391 308.897 3.83478C307.84 4.8 306.532 6 304.028 6C301.523 6 300.216 4.8 299.158 3.83478C298.212 2.97391 297.517 2.34783 296.042 2.34783C294.567 2.34783 293.871 2.97391 292.925 3.83478C291.868 4.8 290.56 6 288.056 6C285.551 6 284.243 4.8 283.186 3.83478C282.24 2.97391 281.544 2.34783 280.07 2.34783C278.567 2.34783 277.899 2.97391 276.953 3.83478C275.896 4.8 274.588 6 272.083 6C269.579 6 268.271 4.8 267.214 3.83478C266.268 2.97391 265.572 2.34783 264.097 2.34783C262.595 2.34783 261.927 2.97391 260.981 3.83478C259.812 4.8 258.504 6 256 6C253.496 6 252.188 4.8 251.13 3.83478C250.184 2.97391 249.489 2.34783 248.014 2.34783C246.511 2.34783 245.843 2.97391 244.897 3.83478C243.84 4.8 242.532 6 240.028 6C237.523 6 236.216 4.8 235.158 3.83478C234.212 2.97391 233.517 2.34783 232.042 2.34783C230.539 2.34783 229.871 2.97391 228.925 3.83478C227.812 4.8 226.504 6 224 6C221.496 6 220.188 4.8 219.13 3.83478C218.184 2.97391 217.489 2.34783 216.014 2.34783C214.511 2.34783 213.843 2.97391 212.897 3.83478C211.84 4.8 210.532 6 208.028 6C205.523 6 204.216 4.8 203.158 3.83478C202.212 2.97391 201.517 2.34783 200.042 2.34783C198.567 2.34783 197.871 2.97391 196.925 3.83478C195.84 4.8 194.504 6 192 6C189.496 6 188.188 4.8 187.13 3.83478C186.184 2.97391 185.489 2.34783 184.014 2.34783C182.511 2.34783 181.843 2.97391 180.897 3.83478C179.84 4.8 178.532 6 176.028 6C173.523 6 172.216 4.8 171.158 3.83478C170.212 2.97391 169.517 2.34783 168.042 2.34783C166.539 2.34783 165.871 2.97391 164.925 3.83478C163.868 4.8 162.56 6 160.056 6C157.551 6 156.243 4.8 155.186 3.83478C154.24 2.97391 153.544 2.34783 152.07 2.34783C150.595 2.34783 149.899 2.97391 148.953 3.83478C147.896 4.8 146.588 6 144.083 6C141.579 6 140.271 4.8 139.214 3.83478C138.268 2.97391 137.572 2.34783 136.097 2.34783C134.595 2.34783 133.927 2.97391 132.981 3.83478C131.923 4.8 130.616 6 128.111 6C125.607 6 124.299 4.8 123.242 3.83478C122.296 2.97391 121.6 2.34783 120.125 2.34783C118.623 2.34783 117.955 2.97391 117.009 3.83478C115.951 4.8 114.643 6 112.139 6C109.635 6 108.327 4.8 107.27 3.83478C106.323 2.97391 105.628 2.34783 104.153 2.34783C102.65 2.34783 101.983 2.97391 101.037 3.83478C99.9791 4.8 98.6713 6 96.167 6C93.6626 6 92.3548 4.8 91.2974 3.83478C90.3513 2.97391 89.6556 2.34783 88.1809 2.34783C86.7061 2.34783 86.0104 2.97391 85.0643 3.83478C84.007 4.8 82.6991 6 80.1948 6C77.6904 6 76.3826 4.8 75.3252 3.83478C74.3791 2.97391 73.6835 2.34783 72.2087 2.34783C70.7061 2.34783 70.0383 2.97391 69.0922 3.83478C68.0348 4.8 66.727 6 64.2226 6C61.7183 6 60.4104 4.8 59.353 3.83478C58.407 2.97391 57.7113 2.34783 56.2365 2.34783C54.7339 2.34783 54.0661 2.97391 53.12 3.83478C52.0626 4.8 50.7548 6 48.2504 6C45.7461 6 44.4383 4.8 43.3809 3.83478C42.4348 2.97391 41.7391 2.34783 40.2643 2.34783C38.7617 2.34783 38.0939 2.97391 37.1478 3.83478C35.84 4.8 34.5043 6 32 6C29.4957 6 28.1878 4.8 27.1304 3.83478C26.1843 2.97391 25.4887 2.34783 24.0139 2.34783C22.5113 2.34783 21.8435 2.97391 20.8974 3.83478C19.84 4.8 18.5322 6 16.0278 6C13.5235 6 12.2157 4.8 11.1583 3.83478C10.1843 2.97391 9.4887 2.34783 8.01391 2.34783C6.5113 2.34783 5.84348 2.97391 4.89739 3.83478C3.81217 4.8 2.50435 6 0 6V3.65217C1.50261 3.65217 2.17043 3.02609 3.11652 2.16522C4.17391 1.2 5.48174 0 8.01391 0C10.5183 0 11.8261 1.2 12.8835 2.16522C13.8296 3.02609 14.5252 3.65217 16 3.65217C17.5026 3.65217 18.1704 3.02609 19.1165 2.16522C20.1739 1.2 21.5096 0 24.0139 0C26.5183 0 27.8261 1.2 28.8835 2.16522C29.8296 3.02609 30.5252 3.65217 32 3.65217C33.5026 3.65217 34.1704 3.02609 35.1165 2.16522C36.1739 1.2 37.4817 0 39.9861 0C42.4904 0 43.7983 1.2 44.8556 2.16522C45.8017 3.02609 46.4974 3.65217 47.9722 3.65217C49.4748 3.65217 50.1426 3.02609 51.0887 2.16522C52.1461 1.2 53.4539 0 55.9583 0C58.4626 0 59.7704 1.2 60.8278 2.16522C61.7739 3.02609 62.4696 3.65217 63.9443 3.65217C65.447 3.65217 66.1148 3.02609 67.0609 2.16522C68.1183 1.2 69.4261 0 71.9304 0C74.4348 0 75.7426 1.2 76.8 2.16522C77.7461 3.02609 78.4417 3.65217 79.9165 3.65217C81.4191 3.65217 82.087 3.02609 83.033 2.16522C84.0904 1.2 85.3983 0 87.9026 0C90.407 0 91.7148 1.2 92.7722 2.16522C93.7183 3.02609 94.4139 3.65217 95.8887 3.65217C97.3913 3.65217 98.0591 3.02609 99.0052 2.16522C100.063 1.2 101.37 0 103.875 0C106.379 0 107.687 1.2 108.744 2.16522C109.69 3.02609 110.386 3.65217 111.861 3.65217C113.336 3.65217 114.031 3.02609 114.977 2.16522C116.035 1.2 117.343 0 119.847 0C122.351 0 123.659 1.2 124.717 2.16522C125.663 3.02609 126.358 3.65217 127.833 3.65217C129.336 3.65217 130.003 3.02609 130.95 2.16522C132.007 1.2 133.315 0 135.819 0C138.323 0 139.631 1.2 140.689 2.16522C141.635 3.02609 142.33 3.65217 143.805 3.65217C145.308 3.65217 145.976 3.02609 146.922 2.16522C147.979 1.2 149.287 0 151.791 0C154.296 0 155.603 1.2 156.661 2.16522C157.607 3.02609 158.303 3.65217 159.777 3.65217C161.28 3.65217 161.948 3.02609 162.894 2.16522C163.951 1.2 165.259 0 167.763 0C170.268 0 171.576 1.2 172.633 2.16522C173.579 3.02609 174.275 3.65217 175.75 3.65217C177.252 3.65217 177.92 3.02609 178.866 2.16522C179.923 1.2 181.231 0 183.736 0C186.24 0 187.548 1.2 188.605 2.16522C189.551 3.02609 190.247 3.65217 191.722 3.65217C193.224 3.65217 193.892 3.02609 194.838 2.16522C195.896 1.2 197.203 0 199.708 0C202.212 0 203.52 1.2 204.577 2.16522C205.523 3.02609 206.219 3.65217 207.694 3.65217C209.197 3.65217 209.864 3.02609 210.81 2.16522C211.868 1.2 213.176 0 215.68 0C218.184 0 219.492 1.2 220.55 2.16522C221.496 3.02609 222.191 3.65217 223.666 3.65217C225.169 3.65217 225.837 3.02609 226.783 2.16522C228.174 1.2 229.482 0 232.014 0C234.518 0 235.826 1.2 236.883 2.16522C237.83 3.02609 238.525 3.65217 240 3.65217C241.475 3.65217 242.17 3.02609 243.117 2.16522C244.174 1.2 245.482 0 247.986 0C250.49 0 251.798 1.2 252.856 2.16522C253.802 3.02609 254.497 3.65217 255.972 3.65217C257.447 3.65217 258.143 3.02609 259.089 2.16522C260.174 1.2 261.482 0 264.014 0C266.546 0 267.826 1.2 268.883 2.16522C269.83 3.02609 270.525 3.65217 272 3.65217C273.475 3.65217 274.17 3.02609 275.117 2.16522C276.174 1.2 277.482 0 279.986 0C282.49 0 283.798 1.2 284.856 2.16522C285.802 3.02609 286.497 3.65217 287.972 3.65217C289.475 3.65217 290.143 3.02609 291.089 2.16522C292.146 1.2 293.454 0 295.958 0C298.463 0 299.77 1.2 300.828 2.16522C301.774 3.02609 302.47 3.65217 303.944 3.65217C305.419 3.65217 306.115 3.02609 307.061 2.16522C308.118 1.2 309.426 0 311.93 0C314.435 0 315.743 1.2 316.8 2.16522C317.746 3.02609 318.442 3.65217 319.917 3.65217V6H320Z" fill="#F1F1F1"/>
</symbol></svg>